HIERARCHY
ROOT Hips
{
	OFFSET 234.239197 91.082298 198.650101
	CHANNELS 6 Xposition Yposition Zposition Zrotation Yrotation Xrotation 
	JOINT RightUpLeg
	{
		OFFSET 0.103457 1.857824 10.548509
		CHANNELS 3 Xrotation Yrotation Zrotation
		JOINT RightLeg
		{
			OFFSET 43.500000 -0.000023 0.000006
			CHANNELS 3 Xrotation Yrotation Zrotation
			JOINT RightFoot
			{
				OFFSET 42.372192 0.000011 -0.000009
				CHANNELS 3 Xrotation Yrotation Zrotation
				JOINT RightToe
				{
					OFFSET 17.300005 0.000002 -0.000010
					CHANNELS 3 Xrotation Yrotation Zrotation
					End Site
					{
						OFFSET 0.000000 0.000000 0.000000
					}
				}
			}
		}
	}
	JOINT LeftUpLeg
	{
		OFFSET 0.103458 1.857836 -10.548506
		CHANNELS 3 Xrotation Yrotation Zrotation
		JOINT LeftLeg
		{
			OFFSET 43.500038 -0.000023 0.000017
			CHANNELS 3 Xrotation Yrotation Zrotation
			JOINT LeftFoot
			{
				OFFSET 42.372269 -0.000019 0.000007
				CHANNELS 3 Xrotation Yrotation Zrotation
				JOINT LeftToe
				{
					OFFSET 17.299999 -0.000003 0.000008
					CHANNELS 3 Xrotation Yrotation Zrotation
					End Site
					{
						OFFSET 0.000000 0.000000 0.000000
					}
				}
			}
		}
	}
	JOINT Spine
	{
		OFFSET 6.901969 -2.603729 0.000003
		CHANNELS 3 Xrotation Yrotation Zrotation
		JOINT Spine1
		{
			OFFSET 12.588093 -0.000007 0.000001
			CHANNELS 3 Xrotation Yrotation Zrotation
			JOINT Spine2
			{
				OFFSET 12.343206 0.000014 -0.000007
				CHANNELS 3 Xrotation Yrotation Zrotation
				JOINT Neck
				{
					OFFSET 25.832899 -0.000010 0.000002
					CHANNELS 3 Xrotation Yrotation Zrotation
					JOINT Head
					{
						OFFSET 11.766599 0.000010 -0.000001
						CHANNELS 3 Xrotation Yrotation Zrotation
						End Site
						{
							OFFSET 0.000000 0.000000 0.000000
						}
					}
				}
				JOINT RightShoulder
				{
					OFFSET 19.745895 -1.480371 6.000111
					CHANNELS 3 Xrotation Yrotation Zrotation
					JOINT RightArm
					{
						OFFSET 11.284124 -0.000010 -0.000007
						CHANNELS 3 Xrotation Yrotation Zrotation
						JOINT RightForeArm
						{
							OFFSET 33.000061 0.000006 0.000028
							CHANNELS 3 Xrotation Yrotation Zrotation
							JOINT RightHand
							{
								OFFSET 25.200001 0.000019 0.000008
								CHANNELS 3 Xrotation Yrotation Zrotation
								End Site
								{
									OFFSET 0.000000 0.000000 0.000000
								}
							}
						}
					}
				}
				JOINT LeftShoulder
				{
					OFFSET 19.746101 -1.480375 -6.000078
					CHANNELS 3 Xrotation Yrotation Zrotation
					JOINT LeftArm
					{
						OFFSET 11.284128 -0.000010 -0.000011
						CHANNELS 3 Xrotation Yrotation Zrotation
						JOINT LeftForeArm
						{
							OFFSET 33.000095 0.000022 0.000002
							CHANNELS 3 Xrotation Yrotation Zrotation
							JOINT LeftHand
							{
								OFFSET 25.199768 0.000129 0.000422
								CHANNELS 3 Xrotation Yrotation Zrotation
								End Site
								{
									OFFSET 0.000000 0.000000 0.000000
								}
							}
						}
					}
				}
			}
		}
	}
}
MOTION
Frames: 11
Frame Time: 0.033333
-291.852386 96.662697 281.524109 92.591451 8.226086 -61.975579 154.348000 -2.920810 167.592092 -29.365381 3.114327 -0.422648 69.177645 -6.429135 -18.959871 21.454562 0.003110 0.000019 159.506910 3.677194 -162.803733 -56.527554 -0.658090 4.077569 70.671441 -1.346443 4.638806 21.454551 -0.003093 -0.000000 7.398469 -0.231122 -0.259025 4.785154 -0.451370 -0.527311 4.467060 -0.454684 -0.524574 -5.313880 -20.181976 -4.975029 -36.456019 13.170865 -18.530568 178.500464 -77.019522 0.096392 23.088980 53.716617 38.776295 -103.326303 -0.662699 2.989184 -7.038086 -1.282541 3.902847 172.933327 85.012919 -5.511199 12.942586 -63.746067 -29.808076 -117.917793 -4.117789 -3.239391 -7.986036 7.402574 -18.926041 
-290.977203 95.794884 283.861115 93.398063 8.591995 -60.287812 151.356896 -3.212495 166.174937 -34.973929 3.665958 -5.296784 75.303710 -0.005564 -12.908560 21.454557 0.003106 0.000017 164.810047 -0.342698 -164.679153 -49.767238 -0.710394 2.413086 72.418631 -0.314940 4.392943 21.454555 -0.003095 0.000001 7.296529 -0.203888 -0.171587 4.580848 -0.400821 -0.351051 4.262749 -0.403070 -0.348618 -4.632860 -20.511852 -5.545958 -36.482619 14.243945 -19.719308 -179.769773 -77.963071 -1.687070 22.130245 53.405273 37.883197 -107.309696 -0.326425 3.141694 -7.202015 1.190027 3.436632 176.695587 85.239757 -1.714419 12.771406 -62.671104 -29.841636 -120.695617 -4.526938 -3.325126 -7.703395 8.246780 -15.343962 
-290.417206 93.962852 286.233185 93.311415 8.815133 -59.178589 148.862265 -2.794304 165.220855 -42.631391 5.050761 -8.394779 79.706641 4.033578 -7.321769 21.454558 0.003106 0.000018 169.893019 -2.914007 -167.231800 -43.068605 -0.066134 3.029245 72.023901 -1.307421 2.695249 21.454557 -0.003107 0.000001 7.289718 -0.324263 -0.014941 4.566797 -0.647653 -0.042553 4.248671 -0.648031 -0.038644 -3.820286 -20.926894 -6.016423 -36.453669 15.234269 -20.740587 -175.579739 -78.314280 -5.962810 18.928174 53.043809 34.357617 -111.220902 -0.014087 3.290290 -7.244439 4.363111 4.101429 -175.513390 85.471430 6.138123 11.936871 -61.835711 -29.410538 -122.978799 -4.718138 -3.403680 -7.746046 8.657679 -12.629477 
-290.063293 90.968033 288.858490 92.085375 9.796976 -58.918209 146.158822 -1.532102 167.048751 -51.941219 4.670104 -9.634355 81.057372 5.613863 -4.555301 21.454557 0.003107 0.000016 174.344267 -3.454191 -169.699124 -36.343734 0.718238 6.021239 73.593471 -3.259814 3.405023 21.454545 -0.003093 -0.000000 7.251969 -0.693132 0.232927 4.488745 -1.394645 0.439057 4.170556 -1.392096 0.447472 -2.658283 -21.524090 -6.480540 -36.599937 15.693432 -21.463661 -173.393190 -78.136681 -8.189270 15.186188 52.708112 29.227076 -114.486094 0.290288 3.408938 -7.406573 6.807312 4.945145 -166.834201 85.457435 14.880687 10.855594 -60.733134 -28.885345 -124.457494 -4.797106 -3.456632 -7.069700 9.291242 -10.239080 
-289.823212 87.717979 291.507812 92.344724 10.218723 -59.601412 144.254606 -2.685597 170.142690 -60.055169 2.695479 -8.803888 80.386402 4.598249 -6.504883 21.454560 0.003111 0.000015 175.893340 -3.018404 -167.812489 -34.414229 1.107279 4.652702 89.416103 -3.191867 -0.007667 21.454551 -0.003091 0.000001 7.191483 -0.692109 0.736953 4.361523 -1.411160 1.447663 4.043451 -1.402544 1.456145 -1.616966 -21.686462 -6.849736 -37.377910 15.160904 -21.554072 -172.797010 -77.674496 -8.793507 10.908761 53.361461 22.372785 -116.736102 0.612824 3.481385 -7.486802 8.258998 4.891278 -158.770684 85.251621 23.006312 8.196935 -59.659080 -26.329256 -125.142494 -4.934308 -3.474058 -7.049584 8.801290 -9.201910 
-289.569214 84.707031 293.997406 94.541491 8.685879 -62.356417 144.473377 -8.104392 171.060503 -64.032409 1.223943 -4.797457 90.489249 1.298484 -13.406838 21.454553 0.003109 0.000018 175.964101 -4.464291 -166.584721 -35.213809 1.770918 2.902119 101.547503 -2.111620 -2.899224 21.454553 -0.003089 0.000001 7.469337 -0.005417 1.494592 4.924861 -0.073910 2.987595 4.607235 -0.056010 2.987992 -2.522121 -21.474094 -6.353752 -39.451210 14.404159 -21.148793 -164.640385 -73.625396 -17.138917 2.770285 53.126410 12.951460 -115.890893 0.672574 3.441812 -8.737191 6.934937 4.330544 -156.099097 83.738754 25.727948 -0.378526 -57.344253 -20.069462 -122.514005 -4.517245 -3.398856 -7.322405 7.626116 -11.255014 
-289.051300 83.416237 296.062897 97.092826 9.561387 -66.040805 140.875766 -13.633507 168.179133 -67.563302 -0.123985 -3.657986 94.069293 1.116789 -12.010129 21.454557 0.003117 0.000017 173.299535 -6.594306 -168.142701 -35.108040 1.251322 2.480592 107.397901 -1.643137 -4.142859 21.454553 -0.003096 -0.000001 7.225515 0.590813 1.892380 4.456864 1.109023 3.806059 4.139456 1.131838 3.799310 -3.779944 -23.667316 -4.746505 -40.065176 14.797629 -20.690200 -165.309566 -69.391778 -16.472912 0.530943 54.258429 7.456795 -109.077902 0.018767 3.195053 -10.512751 0.352594 2.570988 -178.252064 84.086493 3.357345 -8.286498 -56.843375 -14.342820 -113.581299 -3.177112 -3.122163 -6.802922 5.437188 -14.135827 
-288.859314 83.730057 296.954712 97.055684 9.909641 -66.290988 137.275560 -15.841505 163.579902 -71.016878 0.483301 -4.236563 85.767136 1.368888 -8.307588 21.454562 0.003104 0.000017 172.342557 -6.198104 -168.204186 -35.182007 1.378874 2.289071 107.071603 -1.535647 -4.323014 21.454551 -0.003090 0.000000 7.305346 0.606580 1.484569 4.613171 1.154063 2.992073 4.295462 1.171978 2.985057 -6.052764 -23.931776 -3.591488 -38.305395 13.550992 -18.915377 -171.323493 -69.727482 -10.255299 4.651926 59.330561 5.674886 -101.375198 -0.718667 2.906246 -9.319863 -7.641354 7.946063 171.130280 84.392021 -7.348216 -15.064822 -59.083609 -8.929172 -106.516206 -1.643347 -2.923181 -5.418231 1.671428 -24.153581 
-288.999603 85.757973 297.230896 95.217058 10.690240 -64.588584 134.522515 -13.871195 160.315222 -71.574474 1.671297 -6.217165 73.790236 1.843188 -8.548699 21.454565 0.003109 0.000016 172.611475 -3.917010 -168.392303 -33.282170 1.859623 2.761104 101.706913 -2.036470 -3.449350 21.454555 -0.003098 -0.000001 7.535145 0.071430 0.879227 5.058261 0.104689 1.760720 4.740318 0.115175 1.760059 -9.948705 -21.535037 -3.296619 -37.128553 12.161160 -17.606780 -179.490446 -71.527694 -1.850995 12.989767 63.096406 7.928701 -99.401328 -0.752562 2.820457 -10.194261 -5.933118 14.708536 -177.533760 83.490784 4.073487 -16.831338 -61.381127 -6.927467 -107.147315 -1.551569 -2.957135 -4.276103 -1.576435 -31.057454 
-289.460693 88.668190 297.112915 93.803892 12.206203 -64.194400 133.677471 -11.458406 156.291066 -68.998400 2.758184 -9.994384 69.429911 3.353502 -11.165527 21.454553 0.003105 0.000019 172.233930 -2.238293 -169.570388 -30.533500 1.205289 3.453150 92.355509 -2.539818 -1.431962 21.454553 -0.003097 0.000002 7.442990 -0.558856 0.761553 4.865852 -1.148926 1.499173 4.547816 -1.140002 1.506084 -11.596495 -20.571565 -3.615419 -38.573446 13.201272 -18.813655 176.869074 -72.909879 1.862986 20.839011 62.395745 16.030732 -100.970304 -0.843559 2.896897 -9.932500 -3.199101 16.116531 -166.124011 83.585157 15.602768 -12.792037 -64.112677 -10.682946 -110.493302 -2.538849 -3.034020 -4.654263 -0.646848 -26.797250 
-290.085693 91.600143 296.833313 92.684335 13.775532 -65.402893 134.184271 -9.723493 151.941506 -64.486726 3.196558 -12.967102 71.289539 5.553724 -11.541838 21.454557 0.003107 0.000017 171.351483 -0.690004 -170.155312 -28.045097 0.090881 3.257515 81.620979 -2.185820 0.322412 21.454550 -0.003094 -0.000001 7.221650 -1.118344 1.003729 4.411820 -2.273712 1.964870 4.093648 -2.261946 1.978563 -13.709339 -21.564873 -3.418767 -37.753608 15.106661 -20.342158 -179.271429 -73.638510 -2.115715 23.838632 59.295563 23.870910 -103.416208 -0.926405 3.011546 -8.925524 -0.606757 14.395307 -166.429088 84.715649 15.291059 -4.499207 -65.454925 -18.819584 -114.345816 -3.620230 -3.124062 -5.363794 2.562061 -18.193290 
